<?xml version="1.0" encoding="UTF-8"?>
<svg version="1.1" xmlns="http://www.w3.org/2000/svg" width="2046" height="850" viewBox="0 0 2046 850">
<rect x="0" y="0" width="2046" height="850" fill="#121212"/>
<g transform="translate(0,101)">
<path d="M0 0 C7.06846902 5.95906806 13.4052579 13.54560388 14.38452148 23.03930664 C14.96173596 35.38943839 14.30156236 43.52445895 6.23046875 53.39453125 C2.02167241 57.98382763 -1.93106156 60.5477204 -7.5534668 63.18359375 C-11.51204371 65.39304907 -13.57911197 67.22473753 -14.96694946 71.70288086 C-15.49827444 76.35060048 -15.28804267 80.97751623 -15.09375 85.640625 C-15.06947418 87.35547896 -15.05098289 89.07042368 -15.03800964 90.78540039 C-14.98858869 95.27924698 -14.86112478 99.76754781 -14.71685791 104.25921631 C-14.58337399 108.85043291 -14.52439518 113.4425547 -14.45898438 118.03515625 C-14.31995242 127.03107048 -14.09837949 136.02288507 -13.82421875 145.015625 C-13.46674057 144.40874847 -13.10926239 143.80187195 -12.74095154 143.17660522 C-0.23645608 121.95704598 -0.23645608 121.95704598 6.11328125 111.640625 C16.50638591 94.65017104 26.49900344 77.42358508 36.17578125 60.015625 C37.43390625 60.14710938 38.69203125 60.27859375 39.98828125 60.4140625 C41.04982422 60.52500244 41.04982422 60.52500244 42.1328125 60.63818359 C45.42873804 61.24711056 47.03917022 62.4783994 49.17578125 65.015625 C50.04020772 71.47862667 47.83034597 75.15234917 44.48828125 80.390625 C43.56045623 81.90058618 42.63336418 83.410998 41.70703125 84.921875 C41.26359375 85.63472656 40.82015625 86.34757812 40.36328125 87.08203125 C38.99372392 89.31206703 37.72490207 91.58449429 36.48828125 93.890625 C34.20179633 98.07578115 31.62992084 102.05741167 29.01953125 106.046875 C27.10622557 109.12762143 25.35993899 112.26985458 23.61230469 115.44628906 C22.02375214 118.28754111 20.38308301 121.09397374 18.73046875 123.8984375 C18.12847656 124.92066406 17.52648437 125.94289062 16.90625 126.99609375 C15.66383308 129.10166347 14.41901915 131.20582055 13.171875 133.30859375 C10.1522571 138.44519108 7.33319718 143.45673577 5.17578125 149.015625 C4.51578125 149.015625 3.85578125 149.015625 3.17578125 149.015625 C2.84578125 150.665625 2.51578125 152.315625 2.17578125 154.015625 C12.46861721 149.15689498 22.26511183 143.477548 32.11181641 137.78515625 C34.83137149 136.21453193 37.55356101 134.64858995 40.27722168 133.08509827 C43.18177674 131.41761704 46.08495857 129.74775104 48.98828125 128.078125 C50.07898926 127.45172119 51.16969727 126.82531738 52.29345703 126.17993164 C56.83907252 123.55995295 61.34786853 120.9297367 65.75 118.07421875 C69.17578125 116.015625 69.17578125 116.015625 72.17578125 116.015625 C72.15257812 114.76007813 72.129375 113.50453125 72.10546875 112.2109375 C71.78779408 88.11338852 71.78779408 88.11338852 80.42578125 78.515625 C89.94747304 69.85954156 98.46347374 65.19292518 111.6484375 65.63671875 C121.52282761 66.69742289 128.89626247 70.35432437 136.17578125 77.015625 C136.75199219 77.54027344 137.32820313 78.06492187 137.921875 78.60546875 C139.17578125 80.015625 139.17578125 80.015625 139.17578125 82.015625 C139.83578125 82.015625 140.49578125 82.015625 141.17578125 82.015625 C141.99495767 83.74163879 142.80584141 85.4715897 143.61328125 87.203125 C144.06574219 88.16605469 144.51820313 89.12898438 144.984375 90.12109375 C148.08450197 97.65287764 148.70639373 107.50186382 146.05078125 115.265625 C140.75624839 127.01750868 132.95671077 134.97228394 121.17578125 140.015625 C120.20640625 140.44875 119.23703125 140.881875 118.23828125 141.328125 C105.63488077 144.1574598 94.75367353 139.49087483 84.05078125 133.015625 C83.40882813 132.5825 82.766875 132.149375 82.10546875 131.703125 C79.26391107 130.69074817 77.89343844 131.79593097 75.17578125 133.015625 C70.81802099 135.19965524 66.53238412 137.52185832 62.23828125 139.828125 C61.30829819 140.32641815 61.30829819 140.32641815 60.35952759 140.83477783 C49.45891559 146.68433098 38.74905082 152.81716332 28.15994263 159.21534729 C24.55853316 161.38799694 20.95198431 163.55200348 17.3449707 165.71533203 C16.6534214 166.13017349 15.9618721 166.54501495 15.24936676 166.97242737 C13.55821113 167.98689249 11.86700169 169.00126792 10.17578125 170.015625 C11.27666077 170.02593246 12.37754028 170.03623993 13.51177979 170.04685974 C23.92712276 170.14495588 34.3424108 170.24772121 44.75766373 170.35496426 C50.11120955 170.40994074 55.46476103 170.46331784 60.81835938 170.51293945 C65.99257487 170.56095892 71.16673062 170.61331069 76.34087372 170.66856575 C78.30702969 170.68882047 80.27320192 170.70755935 82.23938751 170.72469902 C92.25677347 170.81299387 102.20529439 170.92127777 112.17578125 172.015625 C112.61614056 181.85031635 112.61614056 181.85031635 109.17578125 186.015625 C106.33884806 186.57362738 104.069107 186.79135943 101.21923828 186.80834961 C100.02311511 186.8440111 100.02311511 186.8440111 98.80282784 186.88039303 C96.26037254 186.94973715 93.71896123 186.98425761 91.17578125 187.015625 C89.58230218 187.05031036 87.98885523 187.08650786 86.39544678 187.1242981 C81.42406014 187.23138625 76.45271437 187.28341689 71.48046875 187.33203125 C69.66773082 187.35267694 67.85499686 187.37367491 66.04226685 187.39500427 C61.33745612 187.44944089 56.63260786 187.49918601 51.92773438 187.54785156 C47.10022761 187.59865017 42.2727734 187.65402731 37.4453125 187.70898438 C28.02218062 187.81560239 18.59900254 187.91724918 9.17578125 188.015625 C10.33587708 188.65892258 10.33587708 188.65892258 11.51940918 189.31521606 C14.42804547 190.92849912 17.33637455 192.54233338 20.24450684 194.15652466 C21.49585172 194.85095474 22.74731362 195.545174 23.99890137 196.23916626 C31.96309725 200.65545057 39.90307679 205.1065474 47.76953125 209.6953125 C50.20386885 211.12450035 50.20386885 211.12450035 53.17578125 212.015625 C53.17578125 212.675625 53.17578125 213.335625 53.17578125 214.015625 C53.96726562 214.22832031 54.75875 214.44101562 55.57421875 214.66015625 C61.24837131 216.79565618 66.22268245 220.10556835 71.36328125 223.29101562 C72.18054688 223.78150391 72.9978125 224.27199219 73.83984375 224.77734375 C74.5767041 225.23069092 75.31356445 225.68403809 76.07275391 226.15112305 C78.64526347 227.2086174 79.61123793 226.99831238 82.17578125 226.015625 C83.45447887 225.44827681 84.71643393 224.84200092 85.9609375 224.203125 C87.00411133 223.67332031 87.00411133 223.67332031 88.06835938 223.1328125 C88.78443359 222.76414062 89.50050781 222.39546875 90.23828125 222.015625 C91.665739 221.28464395 93.09409113 220.55540616 94.5234375 219.828125 C95.15258057 219.50457031 95.78172363 219.18101562 96.42993164 218.84765625 C103.50517811 215.47575862 113.13385404 215.99252651 120.6171875 217.88671875 C131.58700804 222.15976507 139.95212648 229.90980166 144.8203125 240.640625 C146.54475872 245.44957341 146.61948303 250.01327722 146.55078125 255.078125 C146.56818359 256.36686523 146.56818359 256.36686523 146.5859375 257.68164062 C146.53889142 267.94552791 142.13663826 274.62734695 135.17578125 282.015625 C126.50209557 289.57688631 115.67199016 292.8063604 104.27734375 292.3984375 C99.42052035 291.79898071 95.47350527 290.31157105 91.17578125 288.015625 C90.39332031 287.603125 89.61085938 287.190625 88.8046875 286.765625 C79.56557327 281.28136158 74.90223724 272.99390063 71.88671875 262.890625 C70.00891141 255.29685467 70.04475059 247.80466973 70.17578125 240.015625 C69.44431885 239.89968994 68.71285645 239.78375488 67.95922852 239.66430664 C65.12368185 239.00348325 63.15372764 238.08515985 60.640625 236.63671875 C59.76269287 236.13551514 58.88476074 235.63431152 57.98022461 235.11791992 C57.0341333 234.5685376 56.08804199 234.01915527 55.11328125 233.453125 C53.61970093 232.59714722 53.61970093 232.59714722 52.09594727 231.72387695 C49.93474674 230.48474427 47.77522651 229.2426774 45.6171875 227.99804688 C42.05845606 225.94803983 38.4933949 223.90948998 34.92578125 221.875 C29.1430994 218.57658584 23.36349069 215.27284776 17.58544922 211.96630859 C11.78358348 208.64703985 5.97963783 205.3314111 0.17578125 202.015625 C5.05430137 210.65567337 10.06138857 219.20413543 15.18188477 227.70288086 C20.31075412 236.22133297 25.37776134 244.77599373 30.43652344 253.33618164 C33.6899741 258.83750675 36.96071824 264.32564606 40.29223633 269.7800293 C45.07918836 277.63731154 49.38590962 284.7346334 50.17578125 294.015625 C42.90078125 298.17276786 42.90078125 298.17276786 38.17578125 297.015625 C31.26517909 290.65586794 26.86617026 281.0796002 22.17578125 273.015625 C21.06405416 271.11313393 19.95205769 269.21080025 18.83984375 267.30859375 C16.42359323 263.17259786 14.01129122 259.03432997 11.6015625 254.89453125 C7.55556936 247.94624516 3.47924456 241.01607506 -0.60351562 234.08935547 C-1.93471523 231.82791358 -3.26253027 229.56450608 -4.58984375 227.30078125 C-5.04713867 226.5214624 -5.50443359 225.74214355 -5.97558594 224.93920898 C-6.85190704 223.44562406 -7.72759401 221.95166683 -8.60253906 220.45727539 C-10.28296533 217.59510554 -11.98263239 214.77800454 -13.82421875 212.015625 C-14.12603729 222.04655092 -14.35670659 232.07639012 -14.49777699 242.11093903 C-14.56550471 246.77123348 -14.65726201 251.42841297 -14.80493164 256.08691406 C-14.946681 260.58705427 -15.02400385 265.0842097 -15.05762291 269.58641052 C-15.08156138 271.29958619 -15.12831937 273.0126062 -15.19870949 274.72450256 C-15.41041699 280.08890327 -15.40662796 284.85243217 -13.82421875 290.015625 C-9.8739063 293.88216808 -5.85048269 295.72052262 -0.82421875 298.015625 C7.96271708 304.34687056 13.07527902 312.32215909 15.17578125 323.015625 C16.34675476 331.76627841 13.40021516 339.02363524 10.17578125 347.015625 C9.51578125 347.015625 8.85578125 347.015625 8.17578125 347.015625 C8.17578125 348.005625 8.17578125 348.995625 8.17578125 350.015625 C5.77800226 352.64383989 2.94958367 354.79462623 0.17578125 357.015625 C-0.71947266 357.73878906 -0.71947266 357.73878906 -1.6328125 358.4765625 C-11.38758635 365.9109167 -21.53893863 365.93107515 -33.3203125 364.76953125 C-42.86897586 362.90590882 -50.21628398 355.51401741 -55.82421875 348.015625 C-61.74991527 338.30501827 -62.74054047 326.15177951 -60.140625 315.11328125 C-59.20463679 312.90341696 -58.15432295 311.0107813 -56.82421875 309.015625 C-56.41171875 308.335 -55.99921875 307.654375 -55.57421875 306.953125 C-51.71434124 301.16330873 -46.6356639 297.69918716 -40.82421875 294.015625 C-40.04820312 293.50515625 -39.2721875 292.9946875 -38.47265625 292.46875 C-33.13777212 289.015625 -33.13777212 289.015625 -30.82421875 289.015625 C-31.15421875 262.945625 -31.48421875 236.875625 -31.82421875 210.015625 C-41.93500653 226.26278888 -41.93500653 226.26278888 -51.69921875 242.703125 C-52.26455322 243.67660889 -52.8298877 244.65009277 -53.41235352 245.65307617 C-56.21701916 250.48779284 -59.00706291 255.33083857 -61.79064941 260.17771912 C-62.79429267 261.92519133 -63.79872208 263.67220995 -64.80322266 265.41918945 C-66.06724896 267.61933895 -67.32882356 269.82089968 -68.58740234 272.02416992 C-71.47970346 277.063082 -74.41523221 282.07466787 -77.453125 287.02734375 C-78.24505249 288.32418091 -78.24505249 288.32418091 -79.05297852 289.6472168 C-81.37481988 292.75185954 -84.01882857 295.26856699 -87.63671875 296.765625 C-91.04090367 297.15467471 -94.39900821 297.07271184 -97.82421875 297.015625 C-94.28825915 277.72857266 -82.65425395 261.30640297 -72.60339355 244.84597778 C-67.06751525 235.77717747 -61.63843678 226.65363195 -56.32421875 217.453125 C-55.68339355 216.34727051 -55.04256836 215.24141602 -54.38232422 214.10205078 C-53.79596191 213.08224121 -53.20959961 212.06243164 -52.60546875 211.01171875 C-52.09048828 210.11638428 -51.57550781 209.2210498 -51.04492188 208.29858398 C-49.71214489 205.96017786 -49.71214489 205.96017786 -48.82421875 203.015625 C-62.85374575 210.76116319 -76.85084059 218.55867494 -90.76171875 226.515625 C-91.8899707 227.16080078 -93.01822266 227.80597656 -94.18066406 228.47070312 C-98.54539997 230.97185846 -102.90830711 233.47224091 -107.23486328 236.0390625 C-108.31751465 236.68101562 -109.40016602 237.32296875 -110.515625 237.984375 C-111.48830322 238.56638672 -112.46098145 239.14839844 -113.46313477 239.74804688 C-115.82421875 241.015625 -115.82421875 241.015625 -117.82421875 241.015625 C-117.7778125 242.24796875 -117.73140625 243.4803125 -117.68359375 244.75 C-117.33571428 257.8212736 -118.09665546 268.64305554 -126.8984375 279.046875 C-135.33597235 287.67267128 -145.11400878 291.97752241 -157.13671875 292.390625 C-167.61443218 292.18470462 -176.45223837 288.52669935 -183.82421875 281.015625 C-192.18947572 270.40444301 -194.97661599 259.9908368 -193.578125 246.671875 C-191.77588191 236.118534 -185.25840326 228.23331734 -176.82421875 222.015625 C-169.7144032 217.439192 -160.28354389 214.58892451 -151.82421875 216.015625 C-144.27570311 218.42309314 -137.00997002 221.69198294 -129.82421875 225.015625 C-129.82421875 225.675625 -129.82421875 226.335625 -129.82421875 227.015625 C-124.82645129 227.64511479 -121.64239714 225.44912972 -117.57421875 222.890625 C-116.0511706 221.9633619 -114.52631772 221.03905883 -113 220.1171875 C-111.75790771 219.36550293 -111.75790771 219.36550293 -110.49072266 218.59863281 C-105.6389936 215.71833514 -100.69525165 213.00256748 -95.76171875 210.265625 C-84.03079026 203.73680199 -72.42619351 197.00391067 -60.85766602 190.19213867 C-59.53530947 189.42704848 -58.19067105 188.69885115 -56.82421875 188.015625 C-57.9317601 188.00531754 -59.03930145 187.99501007 -60.18040466 187.98439026 C-70.64083215 187.8864434 -81.10120297 187.78369022 -91.56153774 187.67628574 C-96.93871037 187.6212271 -102.31588857 187.56783535 -107.69311523 187.51831055 C-112.88676997 187.47041418 -118.08036281 187.41806406 -123.27394295 187.36268425 C-125.25095125 187.34237464 -127.22797645 187.32364362 -129.20501518 187.30655098 C-131.98366238 187.28225273 -134.76219537 187.25223571 -137.54077148 187.22094727 C-138.34998047 187.2151918 -139.15918945 187.20943634 -139.99291992 187.20350647 C-143.92412296 187.15350707 -147.83531035 186.99782021 -151.75379944 186.67076111 C-152.47738175 186.61098052 -153.20096407 186.55119993 -153.94647312 186.48960781 C-155.82421875 186.015625 -155.82421875 186.015625 -158.234375 183.328125 C-158.77964844 182.235 -159.32492188 181.141875 -159.88671875 180.015625 C-160.45519531 178.9225 -161.02367187 177.829375 -161.609375 176.703125 C-162.82421875 174.015625 -162.82421875 174.015625 -162.82421875 173.015625 C-157.75187772 172.22372795 -152.71858978 171.74165867 -147.59033203 171.47290039 C-146.8102434 171.43107919 -146.03015476 171.38925798 -145.22642708 171.34616947 C-136.34289409 170.89966595 -127.45940107 170.78846496 -118.56640625 170.69921875 C-116.79850874 170.67857079 -115.03061528 170.65757279 -113.26272583 170.63624573 C-108.67628328 170.5818324 -104.08980242 170.53207764 -99.5032959 170.48339844 C-94.79643466 170.43258212 -90.08962699 170.3772145 -85.3828125 170.32226562 C-76.19666067 170.21567638 -67.01046172 170.11402397 -57.82421875 170.015625 C-61.27400474 167.97141354 -64.72481036 165.92892916 -68.17578125 163.88671875 C-69.13814697 163.31642944 -70.1005127 162.74614014 -71.09204102 162.15856934 C-79.12870903 157.40441272 -87.22349327 152.75979086 -95.3515625 148.1640625 C-99.36344795 145.87893268 -103.32056696 143.51577341 -107.265625 141.1171875 C-108.34730957 140.46613037 -109.42899414 139.81507324 -110.54345703 139.14428711 C-112.64783503 137.87498735 -114.74429131 136.59243591 -116.83154297 135.29516602 C-117.78689941 134.72209717 -118.74225586 134.14902832 -119.7265625 133.55859375 C-120.56695068 133.04321045 -121.40733887 132.52782715 -122.27319336 131.99682617 C-125.54127662 130.73982295 -127.47318811 131.13216888 -130.82421875 132.015625 C-133.87022299 133.54713347 -133.87022299 133.54713347 -136.82421875 135.453125 C-146.00932298 141.18185537 -155.1818605 142.5842212 -165.82421875 141.015625 C-176.03564525 138.2367374 -183.65608845 131.78255943 -189.12109375 122.91015625 C-190.1533105 120.9766198 -191.01796733 119.05247069 -191.82421875 117.015625 C-192.23671875 115.984375 -192.64921875 114.953125 -193.07421875 113.890625 C-195.25925629 102.6012644 -194.37123463 92.21327099 -188.17578125 82.40625 C-185.06702886 78.14359388 -182.9303488 75.70599052 -177.82421875 74.015625 C-177.82421875 73.355625 -177.82421875 72.695625 -177.82421875 72.015625 C-176.05424401 71.20125632 -174.28320723 70.3891956 -172.51171875 69.578125 C-171.52558594 69.12566406 -170.53945312 68.67320312 -169.5234375 68.20703125 C-161.3154204 64.5841004 -151.72110951 64.97291116 -143.296875 67.91796875 C-132.56601522 72.68158897 -125.12183061 79.23633521 -120.44921875 90.078125 C-117.27633829 98.9323598 -117.70667486 107.71659719 -117.82421875 117.015625 C-116.63119141 117.34626953 -116.63119141 117.34626953 -115.4140625 117.68359375 C-110.75240243 119.41332834 -106.66827912 121.81952969 -102.38671875 124.328125 C-100.52634825 125.40417606 -98.66565882 126.47967587 -96.8046875 127.5546875 C-95.3494165 128.39821777 -95.3494165 128.39821777 -93.86474609 129.25878906 C-88.65817963 132.26717611 -83.43011593 135.23730617 -78.19921875 138.203125 C-76.7153064 139.04967651 -76.7153064 139.04967651 -75.20141602 139.91333008 C-73.81974243 140.6967981 -73.81974243 140.6967981 -72.41015625 141.49609375 C-71.59595215 141.95910889 -70.78174805 142.42212402 -69.94287109 142.89916992 C-67.73660485 144.13511378 -67.73660485 144.13511378 -64.82421875 145.015625 C-64.82421875 145.675625 -64.82421875 146.335625 -64.82421875 147.015625 C-64.06109375 147.221875 -63.29796875 147.428125 -62.51171875 147.640625 C-59.14079818 148.89757843 -56.23442979 150.36475959 -53.09375 152.1015625 C-51.61225464 152.91826416 -51.61225464 152.91826416 -50.10083008 153.75146484 C-49.34954834 154.1686377 -48.5982666 154.58581055 -47.82421875 155.015625 C-55.94071689 140.62375658 -64.16151005 126.3120679 -72.76171875 112.203125 C-73.12247498 111.60987427 -73.4832312 111.01662354 -73.85491943 110.40539551 C-77.06815077 105.12147953 -80.28268926 99.83999401 -83.61328125 94.62890625 C-97.82421875 72.18627296 -97.82421875 72.18627296 -97.82421875 62.015625 C-92.44555751 61.05894612 -88.12176833 60.78450432 -82.82421875 62.015625 C-79.15597833 65.66672411 -77.24855233 69.90575429 -75.04541016 74.54736328 C-72.76486538 79.15678106 -70.06979103 83.53130193 -67.44921875 87.953125 C-66.25016957 90.00975681 -65.05230423 92.06707916 -63.85546875 94.125 C-59.25462488 102.00487272 -54.60546455 109.85589596 -49.94921875 117.703125 C-49.55293274 118.3718161 -49.15664673 119.0405072 -48.74835205 119.72946167 C-44.02134536 127.7037239 -39.23884063 135.63799895 -34.35107422 143.51489258 C-32.82421875 146.015625 -32.82421875 146.015625 -31.82421875 148.015625 C-31.32921875 108.415625 -31.32921875 108.415625 -30.82421875 68.015625 C-33.79421875 67.025625 -33.79421875 67.025625 -36.82421875 66.015625 C-44.84615139 61.62179371 -52.22702337 57.1730544 -56.82421875 49.015625 C-57.42234375 47.96375 -58.02046875 46.911875 -58.63671875 45.828125 C-62.56229862 36.530699 -61.83761013 24.95549847 -58.86328125 15.4765625 C-57.14559827 11.40836598 -54.75903515 8.28268477 -51.82421875 5.015625 C-51.29828125 4.3865625 -50.77234375 3.7575 -50.23046875 3.109375 C-37.74305675 -10.79170629 -14.50725844 -10.1932051 0 0 Z " fill="#02F940" transform="translate(370.82421875,119.984375)"/>
<path d="M0 0 C17.16 0 34.32 0 52 0 C52.02761095 9.95834792 52.05107935 19.91662922 52.0625 29.875 C52.06335602 30.61609764 52.06421204 31.35719528 52.06509399 32.12075043 C52.09360525 60.09114921 51.72458256 88.03805065 51 116 C51.39541992 114.99114746 51.79083984 113.98229492 52.19824219 112.94287109 C52.73095512 111.59466149 53.26384202 110.24652061 53.796875 108.8984375 C54.05581543 108.23642334 54.31475586 107.57440918 54.58154297 106.89233398 C60.4111112 92.192076 68.41697369 81.97064267 82.9765625 75.21484375 C99.58162521 68.54278367 121.14567703 66.84052294 137.92529297 73.79833984 C157.99530265 82.6633549 172.41317523 95.50189115 180.79785156 115.9453125 C187.65488205 133.79708093 188.15903335 152.25850628 188.16796875 171.1484375 C188.17119342 172.77544177 188.17455833 174.40244576 188.17805481 176.02944946 C188.18399877 179.41970491 188.18589954 182.80993504 188.18530273 186.20019531 C188.18520118 190.50194177 188.19886857 194.80352296 188.21607494 199.10523033 C188.22729818 202.45995806 188.22921883 205.81464706 188.22869301 209.16939163 C188.22985705 210.75350134 188.2341878 212.33761259 188.24202538 213.92170334 C188.30133663 227.14128131 187.83529334 240.40888524 183.375 253 C183.11485107 253.74781738 182.85470215 254.49563477 182.58666992 255.26611328 C175.44231724 275.03404076 163.78746425 290.15766373 144.6015625 299.52099609 C127.60401634 307.40191904 107.09699617 309.48684683 89.125 303.4375 C74.34976277 297.97680079 63.28701688 289.06445216 56 275 C54.68 271.37 53.36 267.74 52 264 C51.67 276.54 51.34 289.08 51 302 C34.17 302 17.34 302 0 302 C0 202.34 0 102.68 0 0 Z " fill="#02FB40" transform="translate(1687,147)"/>
<path d="M0 0 C1.18144844 -0.00855011 1.18144844 -0.00855011 2.38676453 -0.01727295 C4.04485758 -0.026668 5.70296884 -0.0332349 7.36108398 -0.03710938 C9.86931622 -0.04680771 12.37672528 -0.07787994 14.88476562 -0.109375 C23.33338415 -0.16454631 30.58812442 0.15342567 38.57421875 3.203125 C40.37905645 3.61342016 42.1903055 3.9991341 44.01171875 4.328125 C46.66047909 4.81280988 49.00863177 5.34792934 51.57421875 6.203125 C51.57421875 6.863125 51.57421875 7.523125 51.57421875 8.203125 C52.58097656 8.45191406 53.58773438 8.70070312 54.625 8.95703125 C71.571346 13.8310745 86.08883792 28.22151266 94.5625 43.22509766 C100.5553976 54.94190663 103.57421875 70.14350698 103.57421875 83.203125 C86.74421875 83.203125 69.91421875 83.203125 52.57421875 83.203125 C50.92421875 78.253125 49.27421875 73.303125 47.57421875 68.203125 C44.90392068 60.90431027 43.0679636 58.32415538 36.57421875 54.203125 C36.57421875 53.543125 36.57421875 52.883125 36.57421875 52.203125 C35.91421875 52.203125 35.25421875 52.203125 34.57421875 52.203125 C34.57421875 51.543125 34.57421875 50.883125 34.57421875 50.203125 C33.48753906 50.02136719 33.48753906 50.02136719 32.37890625 49.8359375 C31.41210938 49.66835937 30.4453125 49.50078125 29.44921875 49.328125 C28.49789063 49.16570312 27.5465625 49.00328125 26.56640625 48.8359375 C23.57421875 48.203125 23.57421875 48.203125 20.8359375 47.15625 C8.09573597 43.43336476 -7.35552383 45.55100511 -19 51.5234375 C-25.87733427 55.68394055 -31.40702 61.87996203 -33.953125 69.625 C-36.17165928 81.72609609 -35.29965192 95.13644081 -28.203125 105.42578125 C-16.95191397 119.40832666 1.54717846 124.95356685 18.5390625 128.52734375 C21.93254607 129.28290702 25.23931031 130.22119994 28.57421875 131.203125 C29.75757813 131.54730469 30.9409375 131.89148438 32.16015625 132.24609375 C51.88377778 138.20384747 68.61638705 145.5163578 83.57421875 160.203125 C84.73244141 161.32460938 84.73244141 161.32460938 85.9140625 162.46875 C96.47785972 173.37564491 101.78407199 186.71830057 105.57421875 201.203125 C105.76113281 201.88294434 105.94804688 202.56276367 106.140625 203.26318359 C107.73328855 209.55053359 107.87324364 215.6150107 107.82421875 222.078125 C107.83195312 223.09003906 107.8396875 224.10195313 107.84765625 225.14453125 C107.80499781 241.8026511 103.49495261 257.6993286 93.57421875 271.203125 C92.96707031 272.04359375 92.35992188 272.8840625 91.734375 273.75 C80.17306241 288.97594133 65.6956163 298.5095778 47.57421875 304.203125 C46.49140625 304.57308594 45.40859375 304.94304687 44.29296875 305.32421875 C14.10990099 315.32419144 -20.16332236 311.71254975 -48.8125 298.66015625 C-54.88148941 295.50292745 -60.17870948 291.56900914 -65.42578125 287.203125 C-66.01875 286.74421875 -66.61171875 286.2853125 -67.22265625 285.8125 C-82.80661516 273.37392729 -90.45919792 255.48591662 -93.42578125 236.203125 C-93.42578125 232.573125 -93.42578125 228.943125 -93.42578125 225.203125 C-76.92578125 225.203125 -60.42578125 225.203125 -43.42578125 225.203125 C-41.11578125 231.143125 -38.80578125 237.083125 -36.42578125 243.203125 C-28.96053662 254.40099194 -18.66288139 260.29709496 -5.42578125 263.203125 C11.05612209 264.50746923 28.08152281 264.8371879 41.8046875 254.47265625 C43.57421875 253.203125 43.57421875 253.203125 46.57421875 252.203125 C47.79291804 249.69864984 47.79291804 249.69864984 48.57421875 247.203125 C49.23421875 247.203125 49.89421875 247.203125 50.57421875 247.203125 C50.70699219 246.49800781 50.83976562 245.79289063 50.9765625 245.06640625 C51.58806096 242.13680903 52.35322269 239.2785839 53.13671875 236.390625 C54.32918155 231.55028337 55.16277456 227.18062559 54.57421875 222.203125 C54.44273437 221.06875 54.31125 219.934375 54.17578125 218.765625 C52.40395725 207.35231718 48.10917905 199.27493401 38.69921875 192.265625 C33.88608146 189.1840432 28.96751138 187.04882959 23.57421875 185.203125 C22.59066406 184.85378906 21.60710937 184.50445312 20.59375 184.14453125 C15.42114024 182.35476894 10.32292831 180.85641257 4.96484375 179.7578125 C0.90843019 178.8166185 -3.03395154 177.5125483 -7 176.25 C-9.19458496 175.57936286 -11.40576561 174.95962097 -13.6328125 174.40625 C-39.74639694 167.83913268 -60.86485097 153.39906098 -75.67578125 131.015625 C-84.31465881 116.46593648 -87.78553079 100.68311314 -87.73828125 83.890625 C-87.75439453 82.75689453 -87.77050781 81.62316406 -87.78710938 80.45507812 C-87.79751255 62.19751015 -81.86111942 46.36998119 -70.42578125 32.203125 C-69.93335938 31.55859375 -69.4409375 30.9140625 -68.93359375 30.25 C-64.8024293 25.0685395 -59.6814865 21.18905186 -54.42578125 17.203125 C-53.51119141 16.47222656 -53.51119141 16.47222656 -52.578125 15.7265625 C-48.59203803 12.65454276 -44.46799983 10.86186405 -39.76171875 9.109375 C-37.2695694 8.20289839 -37.2695694 8.20289839 -34.48828125 6.578125 C-30.74456912 4.89727465 -27.15207937 4.33257366 -23.109375 3.73046875 C-20.4215305 3.29413441 -20.4215305 3.29413441 -18.0234375 2.20703125 C-12.26384008 -0.01885828 -6.09688572 0.0349285 0 0 Z " fill="#02FA40" transform="translate(1295.42578125,142.796875)"/>
<path d="M0 0 C1.71873813 0.01509088 3.43748924 0.02877141 5.15625 0.04101562 C9.31282851 0.073634 13.46876531 0.12516607 17.625 0.1875 C17.625 0.8475 17.625 1.5075 17.625 2.1875 C18.553125 2.125625 19.48125 2.06375 20.4375 2 C31.92037986 2.04620877 42.6654797 8.08628229 52.625 13.1875 C53.7696875 13.7134375 53.7696875 13.7134375 54.9375 14.25 C56.625 15.1875 56.625 15.1875 57.625 17.1875 C59.28609113 18.19673437 60.95370998 19.19524627 62.625 20.1875 C71.34795975 27.09256561 80.53579635 36.17273268 85.625 46.1875 C85.625 47.5075 85.625 48.8275 85.625 50.1875 C86.285 50.1875 86.945 50.1875 87.625 50.1875 C88.44194231 52.89456344 89.25366494 55.60301396 90.0625 58.3125 C90.29259766 59.07304687 90.52269531 59.83359375 90.75976562 60.6171875 C90.98212891 61.36484375 91.20449219 62.1125 91.43359375 62.8828125 C91.63782959 63.56359863 91.84206543 64.24438477 92.05249023 64.94580078 C94.21687168 73.42057708 93.625 79.86689157 93.625 89.1875 C76.795 89.1875 59.965 89.1875 42.625 89.1875 C41.635 83.5775 40.645 77.9675 39.625 72.1875 C36.74025462 65.38245963 33.91489729 59.38076486 27.625 55.1875 C27.625 54.5275 27.625 53.8675 27.625 53.1875 C26.92375 52.919375 26.2225 52.65125 25.5 52.375 C22.625 51.1875 22.625 51.1875 19.8125 49.6875 C12.89674914 46.43302901 6.39915683 45.85656401 -1.125 45.9375 C-1.99737305 45.94136719 -2.86974609 45.94523437 -3.76855469 45.94921875 C-10.43866269 46.0381206 -16.85886607 46.70415244 -23.375 48.1875 C-23.375 48.8475 -23.375 49.5075 -23.375 50.1875 C-25.355 50.5175 -27.335 50.8475 -29.375 51.1875 C-29.375 51.8475 -29.375 52.5075 -29.375 53.1875 C-30.15875 53.435 -30.9425 53.6825 -31.75 53.9375 C-34.82337014 55.40100959 -35.14618421 56.11546053 -36.375 59.1875 C-37.36914593 60.85766516 -38.3685725 62.52470673 -39.375 64.1875 C-39.705 64.8475 -40.035 65.5075 -40.375 66.1875 C-41.035 66.1875 -41.695 66.1875 -42.375 66.1875 C-42.705 68.8275 -43.035 71.4675 -43.375 74.1875 C-44.035 74.1875 -44.695 74.1875 -45.375 74.1875 C-45.705 126.3275 -46.035 178.4675 -46.375 232.1875 C-45.715 232.1875 -45.055 232.1875 -44.375 232.1875 C-44.15585937 232.94933594 -43.93671875 233.71117187 -43.7109375 234.49609375 C-40.47665178 245.02724361 -36.26853687 253.630856 -26.375 259.1875 C-11.18040526 265.84580556 4.09225185 266.01443549 19.625 260.1875 C28.65676969 255.89935351 34.00637484 250.54701824 37.80078125 241.33203125 C40.20024283 234.58736288 41.31687998 228.38216012 42.625 221.1875 C59.785 221.1875 76.945 221.1875 94.625 221.1875 C94.625 243.14418968 89.11778182 263.00704117 73.703125 279.00390625 C71.57318198 281.16404408 71.57318198 281.16404408 69.734375 283.65625 C67.31336294 286.56146447 64.61693659 288.84521665 61.625 291.125 C61.05612061 291.5595752 60.48724121 291.99415039 59.90112305 292.44189453 C54.49280309 296.46352335 48.79957288 299.48772124 42.625 302.1875 C41.78324219 302.56519531 40.94148437 302.94289063 40.07421875 303.33203125 C14.48942378 314.22699179 -19.51215571 313.36749018 -45.375 303.1875 C-54.0990156 299.36179613 -62.258607 294.55408148 -69.375 288.1875 C-70.10976563 287.53394531 -70.84453125 286.88039063 -71.6015625 286.20703125 C-88.46444222 270.30029419 -97.33591075 248.75238406 -98.55884361 225.72593117 C-98.62623227 221.88263683 -98.63451007 218.04207492 -98.61791992 214.19848633 C-98.61899559 212.73350439 -98.62093848 211.26852287 -98.62367249 209.80354309 C-98.62847725 205.86158341 -98.62092103 201.91973876 -98.61071944 197.97779298 C-98.60186866 193.8340484 -98.60369772 189.69030668 -98.6040802 185.54655457 C-98.60314684 178.59424948 -98.59450613 171.64198832 -98.58081055 164.68969727 C-98.56507002 156.6700651 -98.5598133 148.6504809 -98.5605461 140.6308344 C-98.56122319 132.06124 -98.55427544 123.49166389 -98.5450995 114.92207503 C-98.54297588 112.46527457 -98.54225938 110.00847709 -98.54186058 107.5516758 C-98.54085088 103.6831546 -98.53470341 99.81467314 -98.52469444 95.94616508 C-98.52179171 94.53249988 -98.52053952 93.11883011 -98.52112198 91.70516205 C-98.5257404 73.66151916 -98.5257404 73.66151916 -96.2890625 65.58203125 C-96.08023438 64.82599609 -95.87140625 64.06996094 -95.65625 63.29101562 C-95.4396875 62.53498047 -95.223125 61.77894531 -95 61 C-94.79117188 60.23236328 -94.58234375 59.46472656 -94.3671875 58.67382812 C-93.11866157 54.23166424 -91.59706884 50.26129288 -89.375 46.1875 C-88.715 46.1875 -88.055 46.1875 -87.375 46.1875 C-87.14554688 45.16269531 -86.91609375 44.13789063 -86.6796875 43.08203125 C-85.49985901 38.98557613 -83.29521163 36.03698865 -80.5 32.875 C-80.01313721 32.31594971 -79.52627441 31.75689941 -79.0246582 31.1809082 C-66.58555751 17.24776443 -51.42143966 7.87162125 -33.375 3.1875 C-32.4164209 2.92493408 -31.4578418 2.66236816 -30.47021484 2.3918457 C-20.24742709 -0.13668277 -10.46950976 -0.16186815 0 0 Z " fill="#EEF2F6" transform="translate(829.375,142.8125)"/>
<path d="M0 0 C0.69933655 0.00049347 1.3986731 0.00098694 2.11920166 0.00149536 C27.86411561 0.05705781 27.86411561 0.05705781 36.375 4.3125 C36.375 4.9725 36.375 5.6325 36.375 6.3125 C37.0040625 6.41046875 37.633125 6.5084375 38.28125 6.609375 C45.81544181 7.92558923 51.91777981 9.84206621 57.375 15.3125 C59.14847941 16.64947287 60.94221724 17.95978792 62.75 19.25 C64.6315386 20.59506685 66.50664656 21.94917767 68.375 23.3125 C69.18324219 23.89644531 69.99148438 24.48039062 70.82421875 25.08203125 C90.26781843 42.08401504 94.48710596 64.7698775 96.375 89.3125 C79.215 89.3125 62.055 89.3125 44.375 89.3125 C42.725 81.3925 41.075 73.4725 39.375 65.3125 C33.60308278 57.34175718 28.70417111 52.25774245 19.375 49.3125 C18.17875 48.79558594 16.9825 48.27867187 15.75 47.74609375 C10.86252442 45.90995584 6.23644908 45.85564852 1.0625 45.9375 C0.13260254 45.94837646 -0.79729492 45.95925293 -1.75537109 45.97045898 C-14.73167703 46.27162566 -25.78094391 49.85653723 -35 59.5 C-40.9948464 67.16297757 -43.74362869 76.8333068 -43.75871277 86.42044067 C-43.76297775 87.64829788 -43.76724274 88.87615509 -43.77163696 90.14122009 C-43.77128748 91.4940491 -43.77082596 92.84687809 -43.77026367 94.19970703 C-43.77325741 95.63085518 -43.77666044 97.06200252 -43.78044128 98.4931488 C-43.78926657 102.37570321 -43.79161886 106.25823557 -43.79225707 110.14079905 C-43.79296875 112.57030751 -43.79510537 114.9998104 -43.79775429 117.42931747 C-43.80700493 125.91642359 -43.81108979 134.40351401 -43.81030273 142.890625 C-43.80970297 150.78228036 -43.82023553 158.67386713 -43.8360464 166.56550515 C-43.84916015 173.35468462 -43.85448498 180.1438418 -43.85384732 186.93303382 C-43.85359334 190.98154542 -43.85638915 195.02999613 -43.86702538 199.07849503 C-43.87677034 202.89195805 -43.87674211 206.70530281 -43.86950874 210.51877022 C-43.8684706 211.91063041 -43.87077948 213.30249822 -43.8768692 214.69434547 C-43.94869393 230.42908055 -43.94869393 230.42908055 -38.125 244.75 C-37.21234375 246.20212891 -37.21234375 246.20212891 -36.28125 247.68359375 C-35.7346875 248.55113281 -35.188125 249.41867187 -34.625 250.3125 C-34.3053125 251.04597656 -33.985625 251.77945313 -33.65625 252.53515625 C-32.31496936 254.84683312 -31.06750648 255.29221248 -28.625 256.3125 C-27.90183594 256.70308594 -27.17867187 257.09367187 -26.43359375 257.49609375 C-12.76898648 264.72235229 1.4754971 266.70317042 16.52734375 262.34765625 C26.39558747 258.7604346 34.12258932 253.9300716 38.83984375 244.33203125 C41.51274843 237.84733206 43.10628419 231.52548883 44.015625 224.578125 C44.375 222.3125 44.375 222.3125 45.375 221.3125 C46.97110982 221.21916295 48.57133428 221.19504628 50.17016602 221.19897461 C51.19114883 221.19905014 52.21213165 221.19912567 53.26405334 221.19920349 C54.3744548 221.20436478 55.48485626 221.20952606 56.62890625 221.21484375 C58.32478127 221.21696617 58.32478127 221.21696617 60.05491638 221.21913147 C63.68247065 221.22474981 67.30996424 221.23730542 70.9375 221.25 C73.38997307 221.25501264 75.8424471 221.25957595 78.29492188 221.26367188 C84.32163545 221.2747252 90.34831339 221.29148116 96.375 221.3125 C94.67755324 248.96623661 87.27372247 269.9554917 66.5625 288.8125 C57.84375 296.3125 57.84375 296.3125 54.375 296.3125 C54.375 296.9725 54.375 297.6325 54.375 298.3125 C37.77734146 305.60791463 37.77734146 305.60791463 31.375 307.3125 C29.83005859 307.73015625 29.83005859 307.73015625 28.25390625 308.15625 C9.98976304 312.3309113 -10.51402948 312.14907132 -28.625 307.3125 C-30.25115234 306.91224609 -30.25115234 306.91224609 -31.91015625 306.50390625 C-50.65010269 301.38059161 -66.18172437 291.15127255 -78.625 276.3125 C-79.75615234 274.97251953 -79.75615234 274.97251953 -80.91015625 273.60546875 C-82.625 271.3125 -82.625 271.3125 -82.625 269.3125 C-83.285 269.3125 -83.945 269.3125 -84.625 269.3125 C-85.54501657 267.06116533 -86.45040023 264.805058 -87.34375 262.54296875 C-88.01052642 260.86179772 -88.67931705 259.18129305 -89.37109375 257.51025391 C-90.18046069 255.55478713 -90.96592304 253.59072763 -91.75 251.625 C-92.24757813 250.40425781 -92.74515625 249.18351563 -93.2578125 247.92578125 C-96.98899835 236.84686578 -96.91606653 224.57100014 -96.85205078 213.02368164 C-96.85148472 211.56335966 -96.85180702 210.10303711 -96.85293579 208.64271545 C-96.85350271 204.73045371 -96.84185724 200.81831805 -96.82778788 196.90608525 C-96.81516862 192.79819098 -96.81410129 188.69029287 -96.81173706 184.5823822 C-96.80555484 176.82675745 -96.78918878 169.07119 -96.76903808 161.31559032 C-96.74657683 152.47624099 -96.7356601 143.63688872 -96.72564721 134.7975179 C-96.70481914 116.63581294 -96.6697075 98.4741611 -96.625 80.3125 C-95.965 80.3125 -95.305 80.3125 -94.625 80.3125 C-94.59921875 79.30832031 -94.5734375 78.30414063 -94.546875 77.26953125 C-93.71160227 54.54955423 -84.1589649 38.28462239 -68.08203125 22.578125 C-63.32402892 18.19077786 -58.77895595 14.47470074 -52.625 12.3125 C-51.93019531 11.85359375 -51.23539063 11.3946875 -50.51953125 10.921875 C-46.81377229 8.86145302 -43.07562794 7.85236694 -39 6.75 C-37.48564841 6.33687875 -35.97256232 5.9190835 -34.4609375 5.49609375 C-33.46392822 5.22623657 -33.46392822 5.22623657 -32.44677734 4.95092773 C-30.32558894 4.29222667 -30.32558894 4.29222667 -27.625 2.3125 C-18.59270224 -0.05868763 -9.2738389 -0.04502661 0 0 Z " fill="#EEF2F6" transform="translate(1065.625,142.6875)"/>
<path d="M0 0 C17.16 0 34.32 0 52 0 C52.01458252 4.44033691 52.02916504 8.88067383 52.04418945 13.45556641 C52.09461334 28.15584454 52.16107412 42.85601824 52.23571491 57.5561924 C52.28056356 66.46550941 52.32000305 75.37478743 52.34643555 84.28417969 C52.36950456 92.05514455 52.40300091 99.82598486 52.44870156 107.59685075 C52.47251447 111.70644779 52.491321 115.81592239 52.49761391 119.9255867 C52.50371933 123.80476002 52.52391229 127.68362053 52.55427551 131.56267738 C52.56296931 132.97582503 52.56679662 134.38901371 52.56500816 135.80218697 C52.55200071 150.84148767 54.37523798 164.06930541 64 176 C66.81103657 178.47865049 69.66961454 180.30082375 73 182 C74.093125 182.598125 75.18625 183.19625 76.3125 183.8125 C85.61116214 187.92121118 99.38342514 187.41846466 108.8828125 184 C111.89807757 182.57581576 114.66921189 180.88962535 117.40625 178.98828125 C119 178 119 178 121 178 C121.226875 177.484375 121.45375 176.96875 121.6875 176.4375 C123 174 123 174 125.375 170.9375 C133.44275073 159.81450639 133.15038359 146.63460955 133.20532227 133.50585938 C133.21491517 132.04656709 133.22492605 130.58727751 133.23532104 129.12799072 C133.2622233 125.18645875 133.28331178 121.24491499 133.30332303 117.30334282 C133.32527376 113.1766943 133.35261776 109.05008153 133.37937927 104.92346191 C133.42918382 97.11806875 133.47416776 89.31265562 133.51740164 81.50722361 C133.56687897 72.6172199 133.62175799 63.72725208 133.67708123 54.83728313 C133.79071327 36.55822066 133.89687985 18.27912501 134 0 C151.49 0 168.98 0 187 0 C187.04531062 18.59478066 187.08208393 37.18951597 187.10362434 55.784338 C187.11389592 64.42004766 187.12787656 73.05572034 187.15087891 81.69140625 C187.1709399 89.22648064 187.18374628 96.76152823 187.18817699 104.29662859 C187.19076307 108.27893625 187.19675335 112.26116729 187.21146011 116.24345016 C187.33151615 150.11022547 185.97189616 182.39780852 161.1875 208.1875 C142.46424449 226.20581366 118.22243214 232.17459398 92.875 232.1875 C91.63234375 232.19974609 90.3896875 232.21199219 89.109375 232.22460938 C74.78356221 232.24704019 61.96614437 230.12066442 49 224 C48.04609375 223.566875 47.0921875 223.13375 46.109375 222.6875 C38.89481864 219.28370931 32.94610145 215.30560499 27 210 C26.17757813 209.29488281 25.35515625 208.58976563 24.5078125 207.86328125 C8.45901392 193.13938349 0.88144816 171.75925296 -0.18082047 150.35686302 C-0.24405944 146.36620978 -0.24816643 142.37829529 -0.22705078 138.38745117 C-0.22648514 136.86831164 -0.22680621 135.34917157 -0.22793579 133.83003235 C-0.22850434 129.74823852 -0.21683172 125.66656476 -0.20278788 121.58479857 C-0.1901965 117.30339035 -0.18910344 113.02197869 -0.18673706 108.74055481 C-0.18054681 100.65195457 -0.16416958 92.56340908 -0.14403808 84.47483283 C-0.12160222 75.25826945 -0.11066641 66.04170331 -0.10064721 56.82511938 C-0.07980088 37.88337568 -0.04315571 18.94170691 0 0 Z " fill="#02F940" transform="translate(1448,221)"/>
<path d="M0 0 C0.99 0.680625 1.98 1.36125 3 2.0625 C11.76640314 9.56008163 13.74119215 21.18089632 14.79043579 32.01269531 C15.20687975 37.94903816 15.16476013 43.89548524 15.16796875 49.84375 C15.1711911 51.26281771 15.17455587 52.6818851 15.17805481 54.10095215 C15.1840046 57.059334 15.18589887 60.01768681 15.18530273 62.97607422 C15.18520101 66.74144871 15.1988827 70.5066351 15.21607494 74.27196503 C15.22726182 77.19757929 15.22921995 80.1231489 15.22869301 83.04878235 C15.22986193 84.43606721 15.23422147 85.82335366 15.24202538 87.21061707 C15.31335402 101.19087225 13.98390383 116.7822236 3.78515625 127.4765625 C-7.90276337 137.45093592 -20.8124624 139.16809683 -35.66943359 138.25439453 C-45.45437846 137.18631234 -54.49396014 131.30645483 -60.78125 123.90234375 C-67.45445211 114.62855552 -69.11053598 103.99131672 -69.14526367 92.75463867 C-69.14862228 92.06742233 -69.1519809 91.38020599 -69.15544128 90.67216492 C-69.16486933 88.42074734 -69.16689029 86.16940479 -69.16796875 83.91796875 C-69.1711871 82.33767162 -69.1745516 80.75737477 -69.17805481 79.17707825 C-69.18402581 75.87121897 -69.18589681 72.56538576 -69.18530273 69.25952148 C-69.18520125 65.04678846 -69.19884797 60.83422451 -69.21607494 56.62153149 C-69.22725494 53.35878244 -69.2292201 50.0960735 -69.22869301 46.83330727 C-69.22986431 45.28134898 -69.23423769 43.72938937 -69.24202538 42.17745018 C-69.33339297 22.08901215 -69.33339297 22.08901215 -64.875 12.875 C-64.52179688 12.12992187 -64.16859375 11.38484375 -63.8046875 10.6171875 C-63.40636719 9.81667969 -63.40636719 9.81667969 -63 9 C-62.34 9 -61.68 9 -61 9 C-60.74476562 8.4121875 -60.48953125 7.824375 -60.2265625 7.21875 C-56.32125831 0.15437809 -48.43237147 -4.08719315 -41.05859375 -6.68359375 C-27.34538735 -10.4566771 -11.35081899 -8.91850064 0 0 Z " fill="#111312" transform="translate(1808,270)"/>
<path d="M0 0 C0.99 0 1.98 0 3 0 C2.67 26.73 2.34 53.46 2 81 C1.34 81 0.68 81 0 81 C0 54.27 0 27.54 0 0 Z " fill="#09C136" transform="translate(354,329)"/>
<path d="M0 0 C0.33 0 0.66 0 1 0 C1.04671776 14.66427109 1.08198774 29.32853232 1.10362434 43.9928627 C1.11393756 50.80174497 1.12799872 57.610581 1.15087891 64.41943359 C1.17293976 70.98759611 1.18456165 77.55572313 1.18975449 84.12392426 C1.19345621 86.63260404 1.20068452 89.14128112 1.21146011 91.64994049 C1.22593073 95.15763584 1.22797978 98.66513128 1.22705078 102.17285156 C1.23424133 103.21510391 1.24143188 104.25735626 1.24884033 105.33119202 C1.246091 106.28749008 1.24334167 107.24378815 1.24050903 108.22906494 C1.24235262 109.05867863 1.24419621 109.88829231 1.24609566 110.74304581 C0.97574168 113.22247416 0.24158743 114.85479969 -1 117 C-1.33 117 -1.66 117 -2 117 C-1.97494385 115.80068848 -1.9498877 114.60137695 -1.92407227 113.36572266 C-1.34577883 85.51575442 -0.85219221 57.66532209 -0.4375 29.8125 C-0.4263982 29.06694099 -0.4152964 28.32138199 -0.40385818 27.55323029 C-0.26727675 18.36884865 -0.13266261 9.18443914 0 0 Z " fill="#103619" transform="translate(1739,147)"/>
<path d="M0 0 C0.33 0 0.66 0 1 0 C1.19370307 6.61993177 1.37108553 13.24015643 1.53710938 19.86083984 C1.59552002 22.11321924 1.65767101 24.36550487 1.72363281 26.61767578 C1.81777932 29.85431852 1.89848408 33.09105973 1.9765625 36.328125 C2.02485703 37.83925873 2.02485703 37.83925873 2.0741272 39.38092041 C2.09429901 40.32159363 2.11447083 41.26226685 2.13525391 42.23144531 C2.16856308 43.47054657 2.16856308 43.47054657 2.20254517 44.73468018 C1.97830485 47.24264437 1.25881474 48.83927555 0 51 C-0.33 51 -0.66 51 -1 51 C-0.67 34.17 -0.34 17.34 0 0 Z " fill="#0D6B24" transform="translate(1738,213)"/>
<path d="M0 0 C-1.612328 4.03082 -4.46234596 6.75944137 -7.5 9.75 C-7.99886719 10.25660156 -8.49773438 10.76320312 -9.01171875 11.28515625 C-12.74658861 15 -12.74658861 15 -15 15 C-13.387672 10.96918 -10.53765404 8.24055863 -7.5 5.25 C-7.00113281 4.74339844 -6.50226562 4.23679688 -5.98828125 3.71484375 C-2.25341139 0 -2.25341139 0 0 0 Z " fill="#CACDD0" transform="translate(1002,163)"/>
<path d="M0 0 C0.66 0.33 1.32 0.66 2 1 C-2.95 5.95 -7.9 10.9 -13 16 C-13.66 15.67 -14.32 15.34 -15 15 C-13.44221619 13.2456027 -11.87905295 11.49653989 -10.3125 9.75 C-9.44238281 8.77546875 -8.57226562 7.8009375 -7.67578125 6.796875 C-5.25206689 4.26347429 -2.7912151 2.11227089 0 0 Z " fill="#C0C3C6" transform="translate(763,162)"/>
<path d="M0 0 C0.66 0 1.32 0 2 0 C0.44499019 3.81684226 -2.03595495 6.19195732 -5 9 C-5.66 8.67 -6.32 8.34 -7 8 C-5.88200014 6.66079162 -4.75538103 5.32877444 -3.625 4 C-2.68527344 2.88625 -2.68527344 2.88625 -1.7265625 1.75 C-1.15679688 1.1725 -0.58703125 0.595 0 0 Z " fill="#3E3E3F" transform="translate(1035,197)"/>
<path d="M0 0 C0.66 0.33 1.32 0.66 2 1 C-0.97 3.97 -3.94 6.94 -7 10 C-7.66 9.67 -8.32 9.34 -9 9 C-6.31941902 5.42589203 -3.57410797 2.68058098 0 0 Z " fill="#07CA37" transform="translate(457,193)"/>
<path d="M0 0 C0.66 0 1.32 0 2 0 C0.55746343 3.36591866 -1.33264727 5.51047079 -4 8 C-4.66 7.67 -5.32 7.34 -6 7 C-5.04882866 5.8274869 -4.08882991 4.66212985 -3.125 3.5 C-2.59132813 2.8503125 -2.05765625 2.200625 -1.5078125 1.53125 C-0.76144531 0.77328125 -0.76144531 0.77328125 0 0 Z " fill="#0F3C1A" transform="translate(1271,197)"/>
</g>
</svg>
